<svg width="22" height="22" viewBox="0 0 22 22" fill="none" xmlns="http://www.w3.org/2000/svg">
<path d="M1.21301 13.06C0.925417 11.7017 0.925417 10.2983 1.21301 8.94001C2.32301 9.07001 3.29301 8.70301 3.60901 7.93901C3.92601 7.17401 3.50101 6.22901 2.62301 5.53601C3.38005 4.37233 4.37233 3.38005 5.53601 2.62301C6.22801 3.50001 7.17401 3.92601 7.93901 3.60901C8.70401 3.29201 9.07101 2.32301 8.94001 1.21301C10.2983 0.925417 11.7017 0.925417 13.06 1.21301C12.93 2.32301 13.297 3.29301 14.061 3.60901C14.826 3.92601 15.771 3.50101 16.464 2.62301C17.6277 3.38005 18.62 4.37233 19.377 5.53601C18.5 6.22801 18.074 7.17401 18.391 7.93901C18.708 8.70401 19.677 9.07101 20.787 8.94001C21.0746 10.2983 21.0746 11.7017 20.787 13.06C19.677 12.93 18.707 13.297 18.391 14.061C18.074 14.826 18.499 15.771 19.377 16.464C18.62 17.6277 17.6277 18.62 16.464 19.377C15.772 18.5 14.826 18.074 14.061 18.391C13.296 18.708 12.929 19.677 13.06 20.787C11.7017 21.0746 10.2983 21.0746 8.94001 20.787C9.07001 19.677 8.70301 18.707 7.93901 18.391C7.17401 18.074 6.22901 18.499 5.53601 19.377C4.37233 18.62 3.38005 17.6277 2.62301 16.464C3.50001 15.772 3.92601 14.826 3.60901 14.061C3.29201 13.296 2.32301 12.929 1.21301 13.06V13.06ZM3.00001 11.21C4.10001 11.515 5.00701 12.212 5.45701 13.296C5.90601 14.381 5.75701 15.516 5.19501 16.508C5.29101 16.61 5.39001 16.709 5.49201 16.805C6.48501 16.243 7.61901 16.095 8.70401 16.543C9.78801 16.993 10.485 17.9 10.79 19C10.93 19.004 11.07 19.004 11.21 19C11.515 17.9 12.212 16.993 13.296 16.543C14.381 16.094 15.516 16.243 16.508 16.805C16.61 16.709 16.709 16.61 16.805 16.508C16.243 15.515 16.095 14.381 16.543 13.296C16.993 12.212 17.9 11.515 19 11.21C19.004 11.07 19.004 10.93 19 10.79C17.9 10.485 16.993 9.78801 16.543 8.70401C16.094 7.61901 16.243 6.48401 16.805 5.49201C16.7086 5.3904 16.6096 5.29137 16.508 5.19501C15.515 5.75701 14.381 5.90501 13.296 5.45701C12.212 5.00701 11.515 4.10001 11.21 3.00001C11.07 2.9963 10.93 2.9963 10.79 3.00001C10.485 4.10001 9.78801 5.00701 8.70401 5.45701C7.61901 5.90601 6.48401 5.75701 5.49201 5.19501C5.39001 5.29101 5.29101 5.39001 5.19501 5.49201C5.75701 6.48501 5.90501 7.61901 5.45701 8.70401C5.00701 9.78801 4.10001 10.485 3.00001 10.79C2.99601 10.93 2.99601 11.07 3.00001 11.21V11.21ZM11 14C10.2044 14 9.4413 13.6839 8.87869 13.1213C8.31608 12.5587 8.00001 11.7957 8.00001 11C8.00001 10.2044 8.31608 9.4413 8.87869 8.87869C9.4413 8.31608 10.2044 8.00001 11 8.00001C11.7957 8.00001 12.5587 8.31608 13.1213 8.87869C13.6839 9.4413 14 10.2044 14 11C14 11.7957 13.6839 12.5587 13.1213 13.1213C12.5587 13.6839 11.7957 14 11 14ZM11 12C11.2652 12 11.5196 11.8946 11.7071 11.7071C11.8946 11.5196 12 11.2652 12 11C12 10.7348 11.8946 10.4804 11.7071 10.2929C11.5196 10.1054 11.2652 10 11 10C10.7348 10 10.4804 10.1054 10.2929 10.2929C10.1054 10.4804 10 10.7348 10 11C10 11.2652 10.1054 11.5196 10.2929 11.7071C10.4804 11.8946 10.7348 12 11 12V12Z" fill="white"/>
</svg>
